<?xml version="1.0" encoding="UTF-8" standalone="no"?>
<!-- Created with Inkscape (http://www.inkscape.org/) -->

<svg
   width="210mm"
   height="297mm"
   viewBox="0 0 210 297"
   version="1.1"
   id="svg7210"
   inkscape:version="1.1.2 (0a00cf5339, 2022-02-04)"
   sodipodi:docname="lock.svg"
   xmlns:inkscape="http://www.inkscape.org/namespaces/inkscape"
   xmlns:sodipodi="http://sodipodi.sourceforge.net/DTD/sodipodi-0.dtd"
   xmlns:xlink="http://www.w3.org/1999/xlink"
   xmlns="http://www.w3.org/2000/svg"
   xmlns:svg="http://www.w3.org/2000/svg">
  <sodipodi:namedview
     id="namedview7212"
     pagecolor="#505050"
     bordercolor="#eeeeee"
     borderopacity="1"
     inkscape:pageshadow="0"
     inkscape:pageopacity="0"
     inkscape:pagecheckerboard="0"
     inkscape:document-units="mm"
     showgrid="false"
     inkscape:zoom="0.40567375"
     inkscape:cx="119.5542"
     inkscape:cy="610.09617"
     inkscape:window-width="1600"
     inkscape:window-height="836"
     inkscape:window-x="0"
     inkscape:window-y="32"
     inkscape:window-maximized="1"
     inkscape:current-layer="layer1" />
  <defs
     id="defs7207">
    <linearGradient
       inkscape:collect="always"
       xlink:href="#linearGradient1015"
       id="linearGradient5231"
       gradientUnits="userSpaceOnUse"
       gradientTransform="translate(-0.98787482,-17.391107)"
       x1="80.592758"
       y1="179.74208"
       x2="128.84866"
       y2="179.74208" />
    <linearGradient
       inkscape:collect="always"
       id="linearGradient1015">
      <stop
         style="stop-color:#222222;stop-opacity:1"
         offset="0"
         id="stop1011" />
      <stop
         style="stop-color:#7b7b7b;stop-opacity:1"
         offset="0.15160279"
         id="stop1538" />
      <stop
         style="stop-color:#7b7b7b;stop-opacity:1"
         offset="0.8433975"
         id="stop1604" />
      <stop
         style="stop-color:#222222;stop-opacity:1"
         offset="1"
         id="stop1013" />
    </linearGradient>
    <radialGradient
       inkscape:collect="always"
       xlink:href="#linearGradient2058"
       id="radialGradient5229"
       gradientUnits="userSpaceOnUse"
       cx="104.75665"
       cy="182.78459"
       fx="104.75665"
       fy="182.78459"
       r="7.6588774" />
    <linearGradient
       inkscape:collect="always"
       id="linearGradient2058">
      <stop
         style="stop-color:#f1f200;stop-opacity:1"
         offset="0"
         id="stop2054" />
      <stop
         style="stop-color:#ffff00;stop-opacity:1"
         offset="0.64933932"
         id="stop2212" />
      <stop
         style="stop-color:#909000;stop-opacity:1"
         offset="1"
         id="stop2056" />
    </linearGradient>
  </defs>
  <g
     inkscape:label="Layer 1"
     inkscape:groupmode="layer"
     id="layer1">
    <path
       id="path5227"
       style="fill:#7a7a7a;stroke-width:1.2842"
       d="m 103.79839,111.90578 a 21.156915,20.701844 0 0 0 -21.156855,20.70158 21.156915,20.701844 0 0 0 0.0269,0.70228 h -0.0269 v 14.40997 h 4.12998 v -3.61011 h -2.00866 v -2.85926 h 2.00866 v -5.43378 h 0.0217 a 17.02704,19.13478 0 0 1 -0.0217,-0.64905 17.02704,19.13478 0 0 1 17.026875,-19.13475 17.02704,19.13478 0 0 1 17.02687,19.13475 17.02704,19.13478 0 0 1 -0.0217,0.64905 h 0.0155 v 19.69699 h 4.12843 v -22.20381 h -0.0191 a 21.156915,20.701844 0 0 0 0.0269,-0.70228 21.156915,20.701844 0 0 0 -21.15685,-20.70158 z" />
    <rect
       style="fill:url(#linearGradient5231);fill-opacity:1;stroke-width:1.25561"
       id="rect5219"
       width="48.255909"
       height="42.309261"
       x="79.604889"
       y="141.19633"
       ry="0" />
    <g
       id="g5225"
       transform="translate(-0.94251482,-17.480551)">
      <circle
         style="opacity:1;fill:url(#radialGradient5229);fill-opacity:1;stroke-width:1.30116"
         id="circle5221"
         cx="104.75665"
         cy="182.78459"
         r="7.6588774" />
      <path
         id="path5223"
         style="opacity:0.428263;fill:#4d4d4d;stroke-width:1.23932"
         d="m 103.91052,181.91117 v 2.32871 h 0.72606 v 2.18537 h -0.72606 v 0.53469 h 0.92966 v 0.97018 h -0.92966 v 2.3173 h 1.74873 v -0.8179 h -1.0175 v -1.31688 h 1.0175 v -3.97295 h -0.64492 v -1.64275 h 0.64492 v -0.58577 z" />
    </g>
  </g>
</svg>
