<?xml version="1.0" encoding="UTF-8" standalone="no"?>
<!-- Created with Inkscape (http://www.inkscape.org/) -->

<svg
   width="210mm"
   height="297mm"
   viewBox="0 0 210 297"
   version="1.1"
   id="svg7210"
   inkscape:version="1.1.2 (0a00cf5339, 2022-02-04)"
   sodipodi:docname="signal4.svg"
   xmlns:inkscape="http://www.inkscape.org/namespaces/inkscape"
   xmlns:sodipodi="http://sodipodi.sourceforge.net/DTD/sodipodi-0.dtd"
   xmlns="http://www.w3.org/2000/svg"
   xmlns:svg="http://www.w3.org/2000/svg">
  <sodipodi:namedview
     id="namedview7212"
     pagecolor="#505050"
     bordercolor="#eeeeee"
     borderopacity="1"
     inkscape:pageshadow="0"
     inkscape:pageopacity="0"
     inkscape:pagecheckerboard="0"
     inkscape:document-units="mm"
     showgrid="false"
     inkscape:zoom="0.40567375"
     inkscape:cx="119.5542"
     inkscape:cy="610.09617"
     inkscape:window-width="1600"
     inkscape:window-height="836"
     inkscape:window-x="0"
     inkscape:window-y="32"
     inkscape:window-maximized="1"
     inkscape:current-layer="layer1" />
  <defs
     id="defs7207" />
  <g
     inkscape:label="Layer 1"
     inkscape:groupmode="layer"
     id="layer1">
    <path
       style="fill:#000000;stroke-width:0.0384266"
       d="m 92.782727,166.36147 c -1.66934,-0.0397 -1.84925,-0.0721 -2.66227,-0.47943 -0.5098,-0.25539 -0.87638,-0.52584 -1.35244,-0.99778 -0.54782,-0.54308 -1.13823,-1.51487 -1.28775,-2.1196 -0.12217,-0.4941 -0.15164,-1.02812 -0.19579,-3.54832 -0.0537,-3.06648 -0.0227,-23.09952 0.0375,-24.228 0.0766,-1.4348 0.13979,-1.77255 0.44399,-2.37178 0.50789,-1.00054 0.98019,-1.53091 1.92724,-2.16422 0.4377,-0.2927 0.83485,-0.49 1.11051,-0.55171 0.40185,-0.09 1.02319,-0.12285 2.97806,-0.15768 2.61576,-0.0466 20.673223,-0.046 23.421043,7.9e-4 2.87074,0.0489 3.27873,0.0889 3.87593,0.38005 1.07521,0.52423 1.85355,1.31245 2.49024,2.52185 0.36252,0.68862 0.40535,1.06288 0.45503,3.97584 0.046,2.69425 0.0456,19.68956 -5e-4,22.47958 -0.0536,3.24809 -0.0901,3.56412 -0.50704,4.39818 -0.50509,1.01033 -1.10568,1.64208 -2.17745,2.29042 -0.62689,0.37922 -0.85415,0.43507 -2.03125,0.49917 -1.55883,0.0849 -23.487383,0.14493 -26.525093,0.0726 z m 26.053253,-2.79699 c 0.57665,-0.0621 0.74423,-0.10769 1.13278,-0.30821 0.61977,-0.31984 1.00735,-0.81163 1.11907,-1.41996 0.12317,-0.67065 0.14267,-3.74205 0.0958,-15.09001 -0.0247,-5.98078 -0.0611,-11.20269 -0.081,-11.60425 -0.0429,-0.86747 -0.0945,-1.24378 -0.20271,-1.47869 -0.11322,-0.24581 -0.68407,-0.80756 -0.94959,-0.93444 -0.2986,-0.1427 -0.64225,-0.1757 -2.34402,-0.22515 -2.12237,-0.0617 -24.806033,-0.068 -25.369983,-0.007 -0.3687,0.0398 -0.45434,0.0648 -0.81702,0.23802 -0.31697,0.15142 -0.44961,0.24019 -0.6095,0.40792 -0.24335,0.2553 -0.46708,0.619 -0.54582,0.88729 -0.13763,0.46901 -0.14315,0.91324 -0.15964,12.84907 -0.0158,11.45267 0.004,14.29422 0.10354,14.91194 0.0605,0.3749 0.27049,0.76987 0.5715,1.07476 0.19989,0.20248 0.33932,0.30028 0.64605,0.45321 0.25016,0.12472 0.46573,0.20433 0.59806,0.22087 0.46596,0.0582 5.8148,0.084 15.822453,0.0763 7.55838,-0.006 10.70194,-0.0206 10.99001,-0.0516 z m -13.5646,-4.30753 c -0.51555,-0.0963 -0.9389,-0.32976 -1.30367,-0.71897 -0.84884,-0.90573 -0.82754,-2.26968 0.0491,-3.14161 0.45251,-0.45009 0.99987,-0.67595 1.63811,-0.67595 1.28037,0 2.30636,1.01395 2.30636,2.27931 0,0.58459 -0.20756,1.10068 -0.61938,1.54008 -0.29411,0.31381 -0.56343,0.4886 -0.95908,0.62246 -0.30801,0.10421 -0.82469,0.14822 -1.11141,0.0947 z m -3.09543,-6.46278 c -0.20851,-0.13187 -1.47513,-1.38525 -1.66562,-1.6482 -0.13194,-0.18214 -0.15007,-0.32223 -0.0586,-0.45282 0.0333,-0.0475 0.21579,-0.20642 0.40553,-0.35306 1.9629,-1.51703 4.38647,-2.04847 6.66077,-1.46058 0.64898,0.16775 1.48126,0.49647 1.93429,0.76397 0.6432,0.37977 1.40141,0.95878 1.4689,1.12172 0.0404,0.0975 0.0334,0.13167 -0.0594,0.29001 -0.13403,0.22871 -1.47522,1.57928 -1.72665,1.73873 -0.10444,0.0662 -0.23644,0.12043 -0.29334,0.12043 -0.0606,0 -0.20461,-0.0714 -0.34792,-0.17249 -0.65711,-0.46363 -1.1628,-0.70225 -1.76233,-0.8316 -0.33262,-0.0718 -0.52156,-0.0871 -1.07594,-0.0871 -1.18627,0 -1.83353,0.20981 -2.83643,0.91946 -0.29016,0.20531 -0.3877,0.21312 -0.64327,0.0515 z m -4.948803,-4.88169 c -1.21653,-1.21098 -1.27205,-1.31891 -0.88633,-1.7233 0.35845,-0.37579 1.53538,-1.26209 2.2059,-1.66118 1.542343,-0.91796 3.688823,-1.69239 5.091533,-1.83697 0.28291,-0.0292 1.06442,-0.0376 2.36324,-0.0256 2.07695,0.0193 2.17056,0.0269 2.91726,0.23864 1.3864,0.39307 2.73468,0.96565 3.84582,1.63323 0.73152,0.43949 1.68134,1.14913 2.16538,1.61783 0.29491,0.28555 0.30449,0.30041 0.2822,0.43775 -0.0337,0.20779 -0.2632,0.48131 -1.01697,1.21212 -0.89883,0.87146 -1.01895,0.92488 -1.39822,0.62188 -1.21616,-0.97158 -1.82016,-1.36552 -2.80649,-1.83045 -0.74136,-0.34946 -1.77455,-0.64506 -2.72225,-0.77886 -0.68182,-0.0963 -2.72152,-0.0975 -3.2981,-0.002 -0.70736,0.11716 -1.42062,0.32051 -2.20377,0.62831 -1.12319,0.44144 -1.992813,0.95927 -3.028813,1.80352 -0.30573,0.24914 -0.57666,0.46879 -0.60207,0.4881 -0.0323,0.0245 -0.30573,-0.22323 -0.90832,-0.82306 z m -3.99171,-4.00321 c -0.5769,-0.53623 -1.17329,-1.15084 -1.33988,-1.38082 -0.15056,-0.20784 -0.14347,-0.32637 0.0322,-0.53848 0.33708,-0.40703 1.84674,-1.59754 2.87239,-2.26514 1.37594,-0.89561 3.07982,-1.72261 4.66884,-2.26607 0.819713,-0.28036 2.466483,-0.66822 3.458393,-0.81456 1.01702,-0.15004 2.6322,-0.17084 4.51514,-0.0582 1.30295,0.078 1.84651,0.1625 3.09334,0.48103 1.01892,0.2603 1.63342,0.46416 2.47852,0.82225 2.38438,1.01033 4.22765,2.15157 5.86006,3.62817 0.61489,0.55621 0.68773,0.72514 0.46057,1.0681 -0.16171,0.24413 -1.30146,1.38827 -1.52276,1.52861 -0.31841,0.20193 -0.44805,0.15679 -1.10892,-0.38612 -0.7392,-0.60728 -1.80384,-1.37748 -2.36818,-1.71326 -1.41025,-0.83908 -2.85879,-1.4573 -4.30547,-1.83753 -1.28254,-0.33708 -2.07699,-0.46137 -3.37491,-0.528 -0.96737,-0.0497 -2.62757,0.002 -3.41011,0.10532 -0.50955,0.0675 -1.36676,0.26136 -2.20908,0.49952 -2.345743,0.66324 -4.601143,1.89218 -6.430383,3.50385 -0.46716,0.41159 -0.74307,0.62567 -0.80639,0.62567 -0.0291,0 -0.28265,-0.21347 -0.56335,-0.47438 z"
       id="path5896" />
  </g>
</svg>
