<?xml version="1.0" encoding="UTF-8" standalone="no"?>
<!-- Created with Inkscape (http://www.inkscape.org/) -->

<svg
   width="210mm"
   height="297mm"
   viewBox="0 0 210 297"
   version="1.1"
   id="svg7210"
   inkscape:version="1.1.2 (0a00cf5339, 2022-02-04)"
   sodipodi:docname="signal2.svg"
   xmlns:inkscape="http://www.inkscape.org/namespaces/inkscape"
   xmlns:sodipodi="http://sodipodi.sourceforge.net/DTD/sodipodi-0.dtd"
   xmlns="http://www.w3.org/2000/svg"
   xmlns:svg="http://www.w3.org/2000/svg">
  <sodipodi:namedview
     id="namedview7212"
     pagecolor="#505050"
     bordercolor="#eeeeee"
     borderopacity="1"
     inkscape:pageshadow="0"
     inkscape:pageopacity="0"
     inkscape:pagecheckerboard="0"
     inkscape:document-units="mm"
     showgrid="false"
     inkscape:zoom="0.40567375"
     inkscape:cx="119.5542"
     inkscape:cy="610.09617"
     inkscape:window-width="1600"
     inkscape:window-height="836"
     inkscape:window-x="0"
     inkscape:window-y="32"
     inkscape:window-maximized="1"
     inkscape:current-layer="layer1" />
  <defs
     id="defs7207" />
  <g
     inkscape:label="Layer 1"
     inkscape:groupmode="layer"
     id="layer1">
    <path
       style="fill:#000000;stroke-width:0.0384266"
       d="m 90.19817,161.68288 c -1.66934,-0.0397 -1.84925,-0.0721 -2.66227,-0.47943 -0.5098,-0.25539 -0.87638,-0.52584 -1.35244,-0.99778 -0.54782,-0.54308 -1.13822,-1.51487 -1.28775,-2.1196 -0.12217,-0.4941 -0.15164,-1.02812 -0.19579,-3.54832 -0.0537,-3.06648 -0.0227,-23.09952 0.0375,-24.228 0.0766,-1.4348 0.13979,-1.77255 0.44399,-2.37178 0.50789,-1.00054 0.98019,-1.53091 1.92724,-2.16422 0.4377,-0.2927 0.83485,-0.49 1.11051,-0.55171 0.40185,-0.0899 1.02319,-0.12285 2.97806,-0.15768 2.61576,-0.0466 20.67322,-0.046 23.42104,7.9e-4 2.87074,0.0489 3.27873,0.0889 3.87593,0.38005 1.07521,0.52423 1.85355,1.31245 2.49024,2.52185 0.36252,0.68862 0.40535,1.06288 0.45503,3.97584 0.046,2.69425 0.0456,19.68956 -5e-4,22.47958 -0.0536,3.24809 -0.0901,3.56412 -0.50704,4.39818 -0.50509,1.01033 -1.10568,1.64208 -2.17745,2.29042 -0.62689,0.37922 -0.85415,0.43507 -2.03125,0.49917 -1.55883,0.0849 -23.48738,0.14493 -26.52509,0.0726 z m 26.05325,-2.79699 c 0.57665,-0.0621 0.74423,-0.10769 1.13278,-0.30821 0.61977,-0.31984 1.00735,-0.81163 1.11907,-1.41996 0.12317,-0.67065 0.14267,-3.74205 0.0958,-15.09001 -0.0247,-5.98078 -0.0611,-11.20269 -0.081,-11.60425 -0.0429,-0.86747 -0.0945,-1.24378 -0.20271,-1.47869 -0.11322,-0.24582 -0.68407,-0.80756 -0.94959,-0.93444 -0.2986,-0.1427 -0.64225,-0.17571 -2.34402,-0.22515 -2.12237,-0.0617 -24.80603,-0.068 -25.36998,-0.007 -0.3687,0.0398 -0.45434,0.0648 -0.81702,0.23802 -0.31697,0.15142 -0.44961,0.24019 -0.6095,0.40792 -0.24335,0.2553 -0.46708,0.619 -0.54582,0.88729 -0.13763,0.46901 -0.14315,0.91324 -0.15964,12.84907 -0.0158,11.45267 0.004,14.29422 0.10354,14.91194 0.0605,0.3749 0.27049,0.76987 0.5715,1.07476 0.19989,0.20248 0.33932,0.30028 0.64605,0.45321 0.25016,0.12472 0.46573,0.20433 0.59806,0.22087 0.46596,0.0582 5.8148,0.084 15.82245,0.0763 7.55838,-0.006 10.70194,-0.0206 10.99001,-0.0516 z m -13.5646,-4.30753 c -0.51555,-0.0963 -0.9389,-0.32976 -1.30367,-0.71897 -0.84884,-0.90573 -0.82754,-2.26968 0.0491,-3.14161 0.45251,-0.45009 0.99987,-0.67595 1.63811,-0.67595 1.28037,0 2.30636,1.01395 2.30636,2.27931 0,0.58459 -0.20756,1.10068 -0.61938,1.54008 -0.29411,0.31381 -0.56343,0.4886 -0.95908,0.62246 -0.30801,0.10421 -0.82469,0.14822 -1.11141,0.0947 z m -3.09543,-6.46278 c -0.20851,-0.13187 -1.47513,-1.38525 -1.66562,-1.6482 -0.13194,-0.18215 -0.15007,-0.32223 -0.0586,-0.45283 0.0333,-0.0475 0.21579,-0.20641 0.40553,-0.35305 1.9629,-1.51703 4.38647,-2.04847 6.66077,-1.46058 0.64898,0.16775 1.48126,0.49647 1.93429,0.76396 0.6432,0.37979 1.40141,0.95879 1.4689,1.12173 0.0404,0.0975 0.0334,0.13167 -0.0594,0.29001 -0.13403,0.22871 -1.47522,1.57928 -1.72665,1.73873 -0.10444,0.0662 -0.23644,0.12043 -0.29334,0.12043 -0.0606,0 -0.20461,-0.0714 -0.34792,-0.17249 -0.65711,-0.46363 -1.1628,-0.70225 -1.76233,-0.8316 -0.33262,-0.0718 -0.52156,-0.087 -1.07594,-0.087 -1.18627,0 -1.83353,0.20981 -2.83643,0.91946 -0.29016,0.20531 -0.3877,0.21312 -0.64327,0.0515 z"
       id="path5892"
       sodipodi:nodetypes="csssssssssssscccsscccssscsssssssccssccccsssssssssssssssssssssssss" />
  </g>
</svg>
